<svg id="Layer_1" data-name="Layer 1" xmlns="http://www.w3.org/2000/svg" viewBox="0 0 47.78 76.17"><path d="M72.53,38.85c-.08-1.94-.26-2.2-.84-2.78a3.14,3.14,0,0,0-4.4,0,3.08,3.08,0,0,0-.89,2.46c0,.1,0,2.47,0,4.23H63.94V27.29A15.32,15.32,0,0,0,48.64,12h0a15.31,15.31,0,0,0-15.3,15.29v15.5H30.88c0-1.76,0-4.13,0-4.23a3.08,3.08,0,0,0-5.25-2.46c-.57.58-.8.81-.88,2.75,0,0,0,9.09,0,10.06,0,1.88,0,3.28,0,3.33a23.9,23.9,0,0,0,20.8,23.67V82H37a3.08,3.08,0,1,0,0,6.16h23.2a3.08,3.08,0,1,0,0-6.16H51.72v-6.1a23.9,23.9,0,0,0,20.8-23.67C72.52,52.19,72.53,38.85,72.53,38.85ZM57.77,27.29v15.5H39.5V27.29a9.14,9.14,0,0,1,18.27,0ZM39.5,52.34V49H57.77v3.39a9.14,9.14,0,1,1-18.27,0ZM33.34,49v3.39a15.32,15.32,0,0,0,15.3,15.3h0a15.33,15.33,0,0,0,15.3-15.3V49h2.42s0,3.27,0,3.29a17.73,17.73,0,0,1-35.46,0s0-3.29,0-3.29Z" transform="translate(-24.74 -12)"/></svg>