<svg id="Layer_1" data-name="Layer 1" xmlns="http://www.w3.org/2000/svg" viewBox="0 0 70.74 59.52"><path d="M30.28,52.65V76.88a2.61,2.61,0,1,0,5.22,0V52.65a2.61,2.61,0,1,0-5.22,0Z" transform="translate(-14.83 -20)"/><path d="M22.09,79.52h5.74V50.75a2.71,2.71,0,0,0,0-.41,22.33,22.33,0,1,1,44.66,0,3.31,3.31,0,0,0,0,.55V79.52h5.75A7.38,7.38,0,0,0,85.58,72V57a7.46,7.46,0,0,0-5.23-7.2,30.15,30.15,0,0,0-60.29,0A7.48,7.48,0,0,0,14.83,57V72A7.38,7.38,0,0,0,22.09,79.52Z" transform="translate(-14.83 -20)"/><path d="M64.92,52.65V76.88a2.61,2.61,0,0,0,5.22,0V52.65a2.61,2.61,0,0,0-5.22,0Z" transform="translate(-14.83 -20)"/></svg>