<svg id="Capa_1" enable-background="new 0 0 497 497" height="512" viewBox="0 0 497 497" width="512" xmlns="http://www.w3.org/2000/svg"><g><path d="m122.341 439.587s5.076-56.224 41.391-84.07h169.536c36.315 27.846 41.391 84.07 41.391 84.07l-46.381 16.772h-159.556z" fill="#60d9a7"/><path d="m421.679 0h-346.358c-24.748 0-43.213 22.827-37.983 47.017 8.226 38.05 15.787 95.681 7.107 159.645h408.111c-8.681-63.964-1.12-121.595 7.107-159.645 5.229-24.19-13.235-47.017-37.984-47.017z" fill="#ed9b83"/><circle cx="422.039" cy="221.598" fill="#ffbe9c" r="44.623"/><path d="m102.399 206.662c-.037-1.698-.065-3.397-.065-5.104 0-87.496 49.371-163.449 121.766-201.558h-148.779c-24.748 0-43.213 22.827-37.983 47.017 8.226 38.049 15.787 95.68 7.107 159.645z" fill="#e7886e"/><path d="m150.205 446.544c0-35.149 13.545-67.131 35.691-91.027h-22.163c-36.315 27.846-41.391 84.07-41.391 84.07l27.904 10.09c-.026-1.041-.041-2.085-.041-3.133z" fill="#36d39a"/><path d="m387.028 110.73c-21.175-26.11-58.262-33.292-87.508-16.714-13.283 7.529-24.217 16.285-32.51 24.013-10.414 9.707-26.611 9.707-37.026 0-8.292-7.727-19.224-16.481-32.504-24.009-29.243-16.579-66.331-9.402-87.506 16.706-21.979 27.098-35.016 61.637-35.016 100.897 0 95.837 77.703 163.554 173.541 163.554 95.847 0 173.541-67.717 173.541-163.554-.001-39.255-13.034-73.793-35.012-100.893z" fill="#ffd3bc"/><path d="m288.184 341.746h-79.368c-13.461 0-24.373 10.912-24.373 24.373v106.508c0 13.461 10.912 24.373 24.373 24.373h79.368c13.461 0 24.373-10.912 24.373-24.373v-106.508c0-13.461-10.912-24.373-24.373-24.373z" fill="#5c6b84"/><circle cx="248.5" cy="390.147" fill="#475066" r="15.055"/><path d="m221.069 408.136c0-24.524.111-47.337 6.201-66.39h-18.455c-13.461 0-24.373 10.912-24.373 24.373v106.508c0 13.461 10.912 24.373 24.373 24.373h51.223c-23.956-22.079-38.969-53.716-38.969-88.864z" fill="#525e77"/><path d="m194.191 429.547h-50.938c-14.808 0-26.812 12.004-26.812 26.812 0 14.808 12.004 26.812 26.812 26.812h50.938c14.808 0 26.812-12.004 26.812-26.812-.001-14.808-12.005-26.812-26.812-26.812z" fill="#ffd3bc"/><path d="m302.81 429.547h50.938c14.808 0 26.812 12.004 26.812 26.812 0 14.808-12.004 26.812-26.812 26.812h-50.938c-14.808 0-26.812-12.004-26.812-26.812 0-14.808 12.004-26.812 26.812-26.812z" fill="#ffd3bc"/><path d="m161.03 354.123c-36.478-40.37-58.696-93.871-58.696-152.565 0-38.734 9.686-75.203 26.75-107.133-7.152 4.129-13.66 9.583-19.11 16.302-15.282 18.841-26.234 41.282-31.494 66.403-1.162-.091-2.333-.154-3.519-.154-24.644 0-44.623 19.978-44.623 44.623s19.978 44.623 44.623 44.623c3.027 0 5.98-.309 8.837-.885 13.398 38.812 41.158 69.762 77.232 88.786z" fill="#ffbe9c"/><g><g><g><ellipse cx="146.609" cy="257.911" fill="#ff97c0" rx="37.596" ry="29.939"/></g><g><ellipse cx="350.392" cy="257.911" fill="#ff97c0" rx="37.596" ry="29.939"/></g></g></g><g fill="#303646"><path d="m274.514 222.979c-3.123-2.721-7.86-2.396-10.582.727-3.896 4.47-9.52 7.034-15.432 7.034s-11.537-2.564-15.432-7.034c-2.721-3.123-7.459-3.448-10.582-.727s-3.448 7.459-.727 10.582c6.745 7.74 16.491 12.179 26.741 12.179s19.996-4.439 26.741-12.179c2.721-3.123 2.396-7.861-.727-10.582z"/><path d="m185.602 201.018-30.821-8.258c-3.997-1.072-8.113 1.302-9.186 5.303-1.072 4.001 1.302 8.114 5.304 9.186l11.57 3.1c-.908 1.24-1.45 2.765-1.45 4.419v13.276c0 4.142 3.358 7.5 7.5 7.5s7.5-3.358 7.5-7.5c-.016-13.832.036-13.329-.044-14.077 5.295 1.35 6.055 1.797 7.69 1.797 3.311 0 6.342-2.21 7.24-5.561 1.072-4.001-1.302-8.114-5.303-9.185z"/><path d="m351.405 198.062c-1.072-4.001-5.186-6.375-9.186-5.303l-30.821 8.258c-4.001 1.072-6.375 5.185-5.304 9.186.898 3.351 3.928 5.561 7.24 5.561 1.637 0 2.35-.435 7.69-1.796-.028.263-.044.53-.044.8v13.276c0 4.142 3.358 7.5 7.5 7.5s7.5-3.358 7.5-7.5v-13.276c0-1.655-.542-3.179-1.45-4.419l11.571-3.1c4.001-1.073 6.376-5.186 5.304-9.187z"/></g><path d="m150.205 446.544c0-5.758.364-11.431 1.069-16.997h-8.021c-14.808 0-26.812 12.004-26.812 26.812 0 14.808 12.004 26.812 26.812 26.812h12.022c-3.303-11.641-5.07-23.927-5.07-36.627z" fill="#ffbe9c"/></g></svg>