<svg id="Layer_1" data-name="Layer 1" xmlns="http://www.w3.org/2000/svg" viewBox="0 0 55 55"><defs><style>.cls-1{fill:#ff9345;}.cls-2{fill:#fff;}</style></defs><g id="Busy"><circle class="cls-1" cx="27.5" cy="27.5" r="27.5"/><path class="cls-2" d="M66.5,54.65,53,32.3a3,3,0,0,0-5.06,0L34.5,54.65A2.95,2.95,0,0,0,37,59.13H64a2.95,2.95,0,0,0,2.52-4.48Zm-1.82,1.92A.8.8,0,0,1,64,57H37a.82.82,0,0,1-.69-1.24L49.8,33.41a.81.81,0,0,1,1.4,0L64.67,55.75A.8.8,0,0,1,64.68,56.57Z" transform="translate(-23 -19)"/><path class="cls-2" d="M50.51,39.67c-.81,0-1.45.44-1.45,1.22,0,2.36.28,5.75.28,8.11,0,.62.54.87,1.17.87s1.15-.25,1.15-.87c0-2.36.28-5.75.28-8.11A1.28,1.28,0,0,0,50.51,39.67Z" transform="translate(-23 -19)"/><path class="cls-2" d="M50.53,51.24a1.53,1.53,0,0,0,0,3.06,1.53,1.53,0,0,0,0-3.06Z" transform="translate(-23 -19)"/></g></svg>