<svg id="Capa_1" enable-background="new 0 0 512 512" height="512" viewBox="0 0 512 512" width="512" xmlns="http://www.w3.org/2000/svg"><g><g><circle cx="105.5" cy="383.5" fill="#909ba6" r="53"/><circle cx="446.5" cy="343.5" fill="#c8d2dc" r="46"/><circle cx="404.5" cy="119.5" fill="#e9edf1" r="38"/><ellipse cx="63.745" cy="252.254" fill="#7e8b96" rx="56.245" ry="54.874"/><ellipse cx="225.321" cy="454.675" fill="#a2abb8" rx="51.132" ry="49.825"/><ellipse cx="356.729" cy="435.373" fill="#b9c3cd" rx="48.575" ry="47.297"/><ellipse cx="124.592" cy="122.294" fill="#5f6c75" rx="58.801" ry="57.397"/><ellipse cx="461.038" cy="223.977" fill="#dce6eb" rx="43.462" ry="42.656"/><circle cx="270.5" cy="69.5" fill="#4e5a61" r="62"/></g><g><path d="m105.5 323c-33.359 0-60.5 27.141-60.5 60.5s27.141 60.5 60.5 60.5 60.5-27.141 60.5-60.5-27.141-60.5-60.5-60.5zm0 106c-25.089 0-45.5-20.411-45.5-45.5s20.411-45.5 45.5-45.5 45.5 20.411 45.5 45.5-20.411 45.5-45.5 45.5z"/><path d="m446.5 290c-14.751 0-28.993 6.181-39.075 16.957-2.83 3.024-2.672 7.771.353 10.601 3.025 2.831 7.771 2.671 10.601-.353 7.362-7.871 17.35-12.205 28.121-12.205 21.229 0 38.5 17.271 38.5 38.5s-17.271 38.5-38.5 38.5c-20.899 0-37.801-16.35-38.479-37.222-.132-4.058-3.462-7.257-7.491-7.257-.083 0-.166.001-.248.004-4.141.135-7.388 3.6-7.253 7.739.942 29.011 24.43 51.736 53.471 51.736 29.5 0 53.5-24 53.5-53.5s-24-53.5-53.5-53.5z"/><path d="m404.5 165c25.089 0 45.5-20.411 45.5-45.5s-20.411-45.5-45.5-45.5-45.5 20.411-45.5 45.5 20.411 45.5 45.5 45.5zm0-76c16.817 0 30.5 13.683 30.5 30.5s-13.683 30.5-30.5 30.5-30.5-13.683-30.5-30.5 13.683-30.5 30.5-30.5z"/><path d="m127.489 252.254c0-34.394-28.596-62.374-63.744-62.374-35.149 0-63.745 27.98-63.745 62.374s28.596 62.374 63.745 62.374 63.744-27.981 63.744-62.374zm-112.489 0c0-26.122 21.867-47.374 48.745-47.374s48.744 21.252 48.744 47.374-21.866 47.374-48.744 47.374-48.745-21.252-48.745-47.374z"/><path d="m225.321 397.351c-25.041 0-47.329 15.548-55.462 38.688-1.373 3.907.682 8.188 4.59 9.563 3.904 1.372 8.188-.682 9.563-4.59 6.024-17.143 22.625-28.661 41.31-28.661 24.059 0 43.632 18.987 43.632 42.325s-19.574 42.324-43.633 42.324c-18.056 0-33.997-10.528-40.613-26.821-1.559-3.837-5.931-5.686-9.771-4.127-3.838 1.559-5.686 5.934-4.127 9.771 8.924 21.977 30.322 36.177 54.511 36.177 32.33 0 58.632-25.716 58.632-57.324 0-31.61-26.302-57.325-58.632-57.325z"/><path d="m317.149 396.556c-21.849 20.409-21.848 57.226 0 77.635 21.824 21.251 57.336 21.251 79.16 0 21.849-20.409 21.848-57.226 0-77.635-21.824-21.252-57.335-21.252-79.16 0zm68.696 66.888c-16.055 15.631-42.176 15.631-58.23 0-15.842-14.809-15.841-41.334 0-56.143 8.027-7.815 18.571-11.724 29.115-11.724s21.088 3.908 29.115 11.724c15.842 14.81 15.841 41.335 0 56.143z"/><path d="m124.592 187.146c16.953-.002 33.911-6.302 46.818-18.899 25.807-24.17 25.805-67.736 0-91.905-8.727-8.518-19.652-14.473-31.598-17.22-4.036-.924-8.062 1.592-8.99 5.629-.928 4.036 1.592 8.062 5.629 8.99 9.26 2.13 17.726 6.74 24.48 13.335 19.818 18.569 19.817 51.869 0 70.437-20.038 19.562-52.643 19.56-72.681 0-19.817-18.569-19.816-51.868.001-70.437 5.067-4.947 10.997-8.734 17.624-11.255 3.872-1.473 5.816-5.805 4.344-9.676-1.473-3.873-5.811-5.817-9.676-4.344-8.561 3.256-16.222 8.148-22.771 14.54-25.807 24.17-25.806 67.736 0 91.905 12.911 12.601 29.863 18.9 46.82 18.9z"/><path d="m410.076 223.978c0 13.424 5.318 26.036 14.977 35.514h-.001c19.842 19.477 52.128 19.473 71.972 0 9.658-9.478 14.977-22.09 14.977-35.514s-5.318-26.037-14.977-35.516c-19.842-19.475-52.128-19.475-71.972 0-9.657 9.478-14.976 22.092-14.976 35.516zm25.483-24.811c21.14-22.14 62.189-6.018 61.441 24.811 0 9.363-3.723 18.174-10.482 24.809-14.052 13.788-36.91 13.788-50.958 0h-.001c-13.886-13.083-13.884-36.539 0-49.62z"/><path d="m270.5 139c25.343 0 48.687-13.804 60.921-36.024 1.997-3.628.676-8.189-2.953-10.188-3.63-1.994-8.189-.675-10.188 2.953-9.596 17.431-27.905 28.259-47.78 28.259-30.052 0-54.5-24.448-54.5-54.5s24.448-54.5 54.5-54.5c28.518 0 52.398 22.256 54.367 50.668.286 4.132 3.849 7.223 8.001 6.964 4.132-.287 7.25-3.869 6.964-8.001-2.512-36.241-32.966-64.631-69.332-64.631-38.322 0-69.5 31.178-69.5 69.5s31.178 69.5 69.5 69.5z"/></g></g></svg>